<?xml version="1.0" standalone="no"?>
<!DOCTYPE svg PUBLIC "-//W3C//DTD SVG 20010904//EN"
 "http://www.w3.org/TR/2001/REC-SVG-20010904/DTD/svg10.dtd">
<svg version="1.0" xmlns="http://www.w3.org/2000/svg"
 width="1556.000000pt" height="378.000000pt" viewBox="0 0 1556.000000 378.000000"
 preserveAspectRatio="xMidYMid meet">

<g transform="translate(0.000000,378.000000) scale(0.100000,-0.100000)"
fill="#whitesmoke" stroke="none">
<path d="M13857 3546 c-26 -7 -59 -24 -72 -36 -61 -57 -95 -275 -104 -670 -5
-237 -8 -274 -21 -271 -182 47 -300 41 -423 -21 -210 -105 -367 -472 -367
-858 0 -111 20 -273 40 -334 12 -35 1 -55 -74 -135 -113 -118 -199 -121 -237
-6 -17 54 -15 283 5 495 38 390 32 564 -22 663 -59 109 -200 197 -329 205 -95
6 -152 -11 -209 -61 -80 -70 -219 -380 -314 -701 -21 -72 -39 -121 -39 -109
-1 12 6 100 15 195 19 211 15 435 -8 490 -24 55 -97 128 -153 154 -33 16 -68
24 -105 24 l-55 0 -1 -198 c-1 -108 -12 -314 -24 -457 -12 -143 -23 -346 -25
-452 l-2 -191 -38 -47 c-64 -77 -144 -112 -194 -85 -75 40 -85 327 -31 870 26
251 26 320 1 369 -44 86 -165 170 -260 179 -60 5 -72 -8 -79 -93 -2 -36 -5
-65 -6 -65 -1 0 -31 29 -67 64 -110 107 -234 152 -397 144 -79 -4 -99 -9 -165
-41 -165 -82 -291 -279 -352 -552 l-22 -100 -38 -3 c-81 -7 -187 61 -241 155
-28 46 -28 44 27 118 101 134 104 234 11 337 -43 48 -122 88 -173 88 -106 0
-199 -166 -199 -356 0 -52 -6 -86 -21 -121 -12 -26 -32 -77 -44 -113 l-24 -65
0 90 c-1 126 -16 242 -40 309 -53 151 -182 245 -304 222 l-34 -6 4 -143 c2
-78 0 -218 -4 -312 l-8 -170 -65 -32 c-36 -18 -79 -36 -96 -39 l-31 -6 -7 99
c-4 54 -14 131 -22 172 -45 221 -234 421 -459 487 -76 22 -205 23 -264 2 l-43
-16 5 36 c13 77 28 480 22 547 -16 165 -80 251 -205 275 -46 9 -114 0 -132
-18 -16 -16 -93 -549 -128 -887 -55 -537 -44 -995 29 -1211 l18 -54 -25 -37
c-74 -113 -157 -158 -224 -122 -56 30 -70 202 -44 575 26 380 19 503 -35 618
-35 75 -111 151 -187 188 -59 28 -77 32 -152 33 -65 0 -94 -5 -125 -20 -55
-27 -124 -100 -162 -171 -41 -78 -153 -371 -195 -509 l-33 -110 -1 190 c-1
268 -32 389 -131 495 -172 186 -409 164 -521 -48 -44 -83 -124 -305 -171 -472
-22 -80 -45 -161 -51 -180 l-10 -35 5 40 c3 22 8 141 11 265 9 324 -14 413
-126 482 -52 32 -144 53 -192 44 l-34 -6 4 -173 c2 -103 -3 -260 -12 -392 -9
-121 -19 -330 -23 -464 l-6 -245 -35 -39 c-40 -43 -99 -77 -136 -77 -32 0 -71
36 -86 80 -8 20 -15 107 -17 205 -5 165 5 337 42 715 8 85 12 170 9 190 -14
82 -85 163 -182 208 -105 48 -172 37 -172 -27 0 -14 -3 -43 -6 -63 l-6 -37
-58 57 c-102 102 -226 152 -376 152 -101 0 -169 -21 -249 -75 -140 -96 -244
-286 -307 -565 -12 -52 -15 -55 -46 -58 -82 -8 -189 58 -241 150 l-29 50 53
74 c86 119 99 186 55 274 -40 80 -142 150 -217 150 -108 0 -192 -145 -198
-340 -2 -72 -8 -107 -25 -145 -12 -27 -33 -79 -45 -115 l-24 -65 0 127 c-1
210 -34 326 -119 420 -62 69 -161 103 -240 82 -20 -6 -22 -11 -17 -33 4 -14 4
-252 0 -529 l-8 -502 -61 -49 c-68 -54 -276 -195 -280 -189 -1 1 1 39 5 83 11
111 23 954 15 999 -10 51 -56 72 -119 55 -103 -27 -206 -103 -238 -174 -12
-25 -19 -64 -19 -101 0 -125 -58 -350 -121 -477 -124 -248 -293 -355 -431
-275 -161 95 -248 369 -248 783 0 452 106 866 266 1045 117 129 282 145 391
38 56 -55 78 -119 76 -220 -1 -97 -16 -163 -59 -257 l-34 -74 21 -23 c55 -59
206 -72 295 -26 63 32 125 108 153 186 20 57 23 80 19 164 -7 148 -37 213
-148 322 -156 154 -277 203 -490 203 -145 -1 -240 -22 -355 -79 -369 -182
-614 -723 -592 -1304 17 -443 171 -800 417 -966 142 -96 302 -105 465 -24 136
67 232 167 326 343 l50 92 -6 -125 c-11 -220 -25 -404 -33 -412 -4 -4 -86 -42
-182 -83 -490 -213 -610 -297 -610 -430 0 -173 223 -305 514 -305 191 0 306
42 418 154 127 126 184 269 223 558 6 47 8 49 73 85 86 47 197 122 267 178
l55 45 6 -28 c28 -124 47 -164 103 -215 69 -62 141 -87 215 -73 l35 7 -2 237
c-2 220 0 243 21 320 28 101 91 263 138 353 l35 66 67 -67 c99 -99 224 -150
364 -150 78 0 73 8 83 -123 12 -152 78 -350 153 -459 82 -119 192 -188 300
-188 75 0 116 16 172 66 92 83 197 270 279 499 l40 110 0 -126 c1 -142 23
-294 52 -356 68 -143 307 -238 472 -188 50 15 141 71 172 105 18 20 18 20 52
-6 68 -51 190 -90 249 -79 31 5 32 7 39 73 30 287 204 882 333 1137 118 236
183 135 181 -285 0 -91 -4 -219 -9 -285 -20 -264 -24 -432 -10 -481 27 -96
124 -155 249 -153 89 2 106 9 109 49 20 250 215 893 348 1151 76 148 126 173
166 83 29 -66 33 -158 18 -463 -21 -448 10 -612 143 -748 76 -78 153 -116 250
-121 74 -4 81 -3 155 33 56 28 96 58 150 112 l73 74 62 -56 c65 -60 189 -127
267 -144 66 -15 216 -13 290 5 87 20 136 51 210 131 100 110 164 258 217 507
8 38 9 39 79 56 38 10 87 25 108 34 21 9 39 16 41 16 1 0 5 -87 8 -192 7 -206
23 -318 55 -390 50 -113 192 -191 297 -162 20 5 21 12 20 252 0 240 1 249 27
338 31 104 106 287 144 351 l25 44 35 -42 c96 -116 236 -178 395 -179 l66 0
11 -107 c49 -447 285 -729 545 -651 45 14 125 86 175 160 52 76 132 243 182
379 l46 126 0 -141 c1 -177 27 -315 72 -376 79 -108 229 -176 370 -168 85 4
178 47 251 116 l51 48 16 -25 c57 -86 150 -155 202 -149 25 3 27 7 38 93 41
323 308 1087 438 1257 64 83 103 87 132 12 19 -51 17 -178 -11 -494 -27 -320
-15 -489 47 -622 67 -146 227 -248 388 -248 95 0 207 70 306 193 l31 38 22
-34 c33 -53 125 -135 183 -162 127 -59 216 -39 294 68 55 74 118 190 175 321
l43 99 27 -130 c15 -71 36 -152 48 -178 47 -107 160 -202 268 -226 141 -32
319 50 432 199 l33 43 28 -43 c89 -139 249 -204 430 -177 164 24 294 121 368
276 32 68 37 88 37 150 0 66 -2 74 -29 102 -43 45 -60 40 -75 -18 -38 -150
-199 -310 -314 -313 -54 -1 -79 12 -106 55 -80 129 -79 583 0 1183 l13 90 105
12 c131 14 172 26 211 58 25 22 30 33 30 72 l0 47 -165 -3 -165 -4 0 164 c0
153 -2 168 -28 244 -49 138 -120 219 -218 243 -64 16 -109 1 -123 -42 -22 -67
-31 -179 -31 -394 l0 -223 -59 0 c-74 0 -163 -17 -173 -33 -10 -15 -10 -98 0
-114 5 -7 50 -15 116 -19 l109 -7 -7 -151 c-17 -378 -25 -730 -20 -826 l6
-105 -42 -64 c-71 -104 -160 -153 -215 -117 -76 50 -115 270 -115 641 1 336
10 416 70 595 107 321 167 613 157 762 -6 89 -44 181 -96 235 -100 103 -254
158 -364 129z m212 -375 c38 -38 40 -157 6 -292 -35 -139 -89 -309 -95 -302
-4 4 -13 63 -19 130 -24 261 -3 438 56 472 25 14 30 14 52 -8z m-10021 -793
c43 -27 106 -123 121 -186 11 -42 8 -60 -19 -164 -97 -375 -246 -699 -361
-783 -45 -34 -62 -31 -87 13 -48 87 -69 253 -53 427 47 501 221 803 399 693z
m3931 -11 c78 -52 115 -167 115 -364 0 -72 -2 -135 -6 -138 -9 -9 -139 38
-191 68 -79 47 -145 114 -178 184 -27 56 -31 74 -27 124 5 71 27 105 89 137
60 32 140 27 198 -11z m2550 19 c63 -33 140 -156 143 -227 3 -90 -123 -473
-222 -674 -73 -149 -136 -233 -191 -255 -29 -13 -33 -12 -50 9 -93 115 -87
526 11 846 23 73 87 204 119 242 54 65 131 89 190 59z m3154 -294 l7 -303 -56
-142 c-123 -310 -206 -434 -276 -412 -27 9 -64 93 -79 180 -17 100 -6 393 20
513 54 254 131 390 254 448 31 15 66 23 87 22 l35 -3 8 -303z m-5969 -351 c65
-40 181 -88 269 -111 83 -21 80 -7 41 -170 -42 -173 -114 -301 -174 -310 -46
-7 -67 3 -116 54 -106 110 -169 300 -180 554 l-6 127 58 -57 c33 -31 81 -70
108 -87z m-6339 -973 c-34 -215 -125 -335 -267 -354 -64 -9 -132 22 -155 70
-35 75 5 113 254 243 87 46 162 83 166 83 5 0 6 -19 2 -42z"/>
</g>
</svg>
